<svg width="114" height="32" viewBox="0 0 114 32" fill="none" xmlns="http://www.w3.org/2000/svg">
<path d="M15.5662 0.149076C15.533 0.281743 15.2009 1.00035 14.8468 1.74107C14.5037 2.48179 13.906 3.73106 13.5408 4.52706C13.1756 5.312 12.6665 6.40649 12.4119 6.95927C12.1463 7.50099 11.7811 8.29699 11.5819 8.72815C11.2941 9.34726 7.54221 17.3736 4.26622 24.3717C3.9674 25.0019 3.04879 26.9697 2.21873 28.7386L0.724609 31.9447L3.93419 31.9779C5.69393 31.9889 7.17698 31.9668 7.22125 31.9226C7.28766 31.8563 14.4816 16.5112 15.4555 14.3665L15.71 13.8137L16.3741 15.1956C17.1488 16.8208 18.1781 19.0208 19.6612 22.2159C21.1784 25.4715 22.695 28.7271 24.1989 31.9889L30.773 32C27.4558 24.7705 24.0291 17.5906 20.6572 10.3865C18.6651 6.13011 16.7725 2.08379 16.4516 1.38729C15.7875 -0.0388671 15.6768 -0.182589 15.5662 0.149076Z" fill="#7A7A7A"/>
<path d="M94.4666 16.1906C93.8247 16.4449 93.6476 17.4841 94.1567 18.0037C94.3891 18.2248 94.5662 18.2912 94.9314 18.2912C95.5734 18.2912 95.9607 17.9595 96.0493 17.3293C96.1046 16.8982 96.0714 16.8208 95.7172 16.467C95.3188 16.069 94.9647 15.9916 94.4666 16.1906Z" fill="#7A7A7A"/>
<path d="M48.6138 16.7655C48.5585 16.9092 48.3371 17.4178 48.1269 17.9042C45.1829 24.626 43.9544 27.4672 43.9544 27.5225C43.9544 27.5557 44.3639 27.5778 44.8619 27.5557L45.7695 27.5225L46.3782 26.1074L46.9758 24.7034L49.5214 24.7255L52.0669 24.7586L52.6756 26.1627L53.2733 27.5778H54.214C54.9223 27.5778 55.1437 27.5446 55.0994 27.4341C55.0662 27.3677 54.2251 25.433 53.229 23.1556C52.2329 20.8782 51.1704 18.4459 50.8716 17.7605L50.3293 16.5223H49.5214C48.7798 16.5223 48.7024 16.5444 48.6138 16.7655ZM50.4178 20.9887C50.8937 22.0722 51.2479 22.9787 51.2258 23.0008C51.2036 23.034 50.4068 23.034 49.455 23.0229L47.7284 22.9898L48.4478 21.3314C48.8463 20.4138 49.2447 19.5073 49.3332 19.2972C49.4218 19.0872 49.5103 18.9434 49.5324 18.9656C49.5546 18.9877 49.953 19.8942 50.4178 20.9887Z" fill="#7A7A7A"/>
<path d="M56.7927 19.7284H54.8006V21.2651L56.7374 21.3314L56.7927 23.7194C56.8481 26.0742 56.8481 26.1074 57.1469 26.5496C57.7335 27.4341 58.8292 27.81 60.1794 27.5889C61.2972 27.4009 61.3083 27.3788 61.0316 26.616C60.7881 25.9416 60.8213 25.9526 60.0355 26.0964C59.4157 26.218 58.9066 26.0521 58.6742 25.6652C58.475 25.3446 58.4529 25.1014 58.4529 23.2883V21.2762H60.5557V19.7284H58.4529V17.5173H56.7927V19.7284Z" fill="#7A7A7A"/>
<path d="M63.2119 19.7284H61.4411V21.2762H63.2119V23.5094C63.2119 25.621 63.234 25.7868 63.4665 26.3064C64.0309 27.5004 65.6246 27.9869 67.2848 27.4562C67.6943 27.3235 67.7053 27.2904 67.4508 26.5054C67.3069 26.0521 67.2184 25.9305 67.0966 25.9747C66.676 26.1406 65.8571 26.1627 65.525 26.03C64.9606 25.7868 64.872 25.4109 64.872 23.2109V21.2762H67.318L67.2515 19.7837L64.872 19.7173V17.5173H63.2119V19.7284Z" fill="#7A7A7A"/>
<path d="M88.2245 19.7173L86.2877 19.7837L86.2213 21.2762H88.2245V23.5094C88.2245 25.4883 88.2577 25.8089 88.4459 26.229C88.6894 26.7707 89.1099 27.1909 89.6633 27.4451C90.1946 27.6773 91.7883 27.6773 92.3417 27.4341L92.7512 27.2572L92.5077 26.5939C92.3306 26.0853 92.2199 25.9305 92.0982 25.9858C91.6887 26.1406 90.8697 26.1627 90.5377 26.03C89.9732 25.7868 89.8847 25.4109 89.8847 23.2109V21.2762H92.3306L92.2642 19.7837L89.8847 19.7173V17.5173H88.2245V19.7173Z" fill="#7A7A7A"/>
<path d="M71.4462 19.7173C70.3062 20.0048 69.2548 20.8671 68.7678 21.9174C68.5022 22.4701 68.469 22.6802 68.469 23.7084C68.469 24.7476 68.5022 24.9355 68.7678 25.4883C69.1552 26.2511 69.8192 26.9476 70.5608 27.3346C71.0809 27.611 71.2248 27.6331 72.4533 27.6331C73.6597 27.6331 73.8367 27.611 74.4123 27.3346C75.021 27.0582 75.9396 26.2401 75.9396 25.9858C75.9285 25.9195 75.6629 25.6762 75.3419 25.4551L74.7553 25.0461L74.4344 25.3777C73.062 26.826 70.4058 26.2401 70.107 24.438L70.0406 24.04H73.0952C76.6036 24.04 76.3491 24.1395 76.172 22.8792C75.8953 20.9224 74.5783 19.7284 72.6193 19.6621C72.1655 19.6399 71.6343 19.662 71.4462 19.7173ZM73.3498 21.2651C73.8478 21.4973 74.3237 22.039 74.4454 22.5144L74.5229 22.8239H72.3537C70.4722 22.8239 70.1845 22.8018 70.1845 22.6581C70.1845 22.1495 70.926 21.3646 71.59 21.1656C72.1213 21.0108 72.8739 21.055 73.3498 21.2651Z" fill="#7A7A7A"/>
<path d="M81.1413 19.7173C80.6986 19.8611 80.2006 20.1374 80.0456 20.3254C79.8243 20.5907 79.7025 20.5354 79.7025 20.1706C79.7025 19.9827 79.6583 19.8279 79.5919 19.8279C79.2598 19.7837 78.297 19.7726 78.1863 19.8168C78.0756 19.85 78.0424 20.7344 78.0424 23.7194V27.5778H79.7025V22.3264L80.0567 21.8953C80.9421 20.8118 82.6022 20.9224 83.1777 22.1053C83.3769 22.4923 83.3991 22.8018 83.4102 25.035L83.4212 27.5225L85.1256 27.5889V25.1677C85.1256 21.9948 84.9928 21.2983 84.2181 20.5133C83.6647 19.9495 83.0671 19.6952 82.1927 19.6621C81.7722 19.6399 81.2962 19.6621 81.1413 19.7173Z" fill="#7A7A7A"/>
<path d="M108.987 19.7837C107.759 20.1264 106.663 21.2319 106.309 22.4702C106.043 23.3546 106.132 24.6813 106.508 25.4773C106.851 26.218 107.56 26.9476 108.301 27.3346C108.821 27.611 108.965 27.6331 110.194 27.6331C111.4 27.6331 111.577 27.611 112.153 27.3346C112.761 27.0582 113.68 26.2401 113.68 25.9858C113.669 25.9195 113.403 25.6762 113.082 25.4551L112.496 25.0461L112.23 25.3225C111.765 25.82 111.389 26.03 110.769 26.1516C109.364 26.4059 108.046 25.6431 107.847 24.438L107.781 24.04H110.836C114.344 24.04 114.089 24.1395 113.912 22.8792C113.636 20.9224 112.319 19.7284 110.36 19.6621C109.873 19.6399 109.297 19.6952 108.987 19.7837ZM111.09 21.2651C111.588 21.4973 112.064 22.039 112.186 22.5144L112.263 22.8239H110.094C107.726 22.8239 107.748 22.835 108.08 22.1827C108.6 21.1988 109.994 20.7676 111.09 21.2651Z" fill="#7A7A7A"/>
<path d="M94.2121 19.8168C94.1235 19.85 94.0903 20.9555 94.0903 23.7194V27.5778H95.7505V23.7084C95.7505 21.5747 95.7173 19.8279 95.673 19.8279C95.4184 19.7837 94.3227 19.7837 94.2121 19.8168Z" fill="#7A7A7A"/>
<path d="M97.2003 19.8279C97.156 19.8721 97.8865 21.6189 98.8383 23.7415L100.565 27.5778L101.328 27.5557L102.103 27.5225L103.841 23.7084C104.793 21.6078 105.545 19.8721 105.523 19.8389C105.501 19.8058 105.103 19.7837 104.638 19.7837C103.918 19.7726 103.785 19.8058 103.664 20.0048C103.586 20.1264 103.033 21.3535 102.435 22.7355C101.838 24.1174 101.317 25.2119 101.273 25.1677C101.24 25.1235 100.72 23.9737 100.133 22.6028C99.5466 21.2319 99.0154 20.0379 98.96 19.9605C98.8936 19.8389 98.6391 19.7947 98.0857 19.7837C97.6541 19.7726 97.2556 19.7947 97.2003 19.8279Z" fill="#7A7A7A"/>
<path d="M27.533 11.3538L17.7911 32H37.2976L27.533 11.3538Z" fill="#7A7A7A"/>
</svg>
