<svg width="100" height="28" viewBox="0 0 100 28" fill="none" xmlns="http://www.w3.org/2000/svg">
<g clip-path="url(#clip0_10819_896)">
<path d="M13.459 0.130442C13.43 0.246525 13.1394 0.875307 12.8296 1.52344C12.5294 2.17157 12.0064 3.26468 11.6868 3.96118C11.3673 4.648 10.9218 5.60568 10.6991 6.08936C10.4666 6.56337 10.1471 7.25986 9.97275 7.63713C9.72096 8.17885 6.43806 15.2019 3.57157 21.3252C3.3101 21.8766 2.50632 23.5985 1.78001 25.1463L0.472656 27.9516L3.28104 27.9807C4.82081 27.9903 6.11848 27.971 6.15722 27.9323C6.21532 27.8742 12.51 14.4473 13.3622 12.5707L13.5849 12.087L14.166 13.2962C14.8438 14.7182 15.7445 16.6432 17.0421 19.4389C18.3697 22.2876 19.6968 25.1362 21.0126 27.9903L26.765 28C23.8625 21.6742 20.8641 15.3918 17.9137 9.08817C16.1706 5.36384 14.5146 1.82332 14.2338 1.21388C13.6527 -0.0340087 13.5559 -0.159765 13.459 0.130442Z" fill="#7A7A7A"/>
<path d="M82.4969 14.1668C81.9352 14.3893 81.7803 15.2986 82.2258 15.7533C82.4291 15.9467 82.5841 16.0048 82.9036 16.0048C83.4653 16.0048 83.8043 15.7146 83.8817 15.1632C83.9302 14.7859 83.9011 14.7182 83.5912 14.4086C83.2426 14.0604 82.9327 13.9927 82.4969 14.1668Z" fill="#7A7A7A"/>
<path d="M42.3757 14.6698C42.3273 14.7956 42.1336 15.2406 41.9496 15.6662C39.3737 21.5477 38.2987 24.0338 38.2987 24.0822C38.2987 24.1112 38.657 24.1306 39.0928 24.1112L39.8869 24.0822L40.4195 22.844L40.9425 21.6154L43.1698 21.6348L45.3972 21.6638L45.9298 22.8924L46.4527 24.1306H47.2759C47.8957 24.1306 48.0893 24.1016 48.0506 24.0048C48.0216 23.9468 47.2856 22.2539 46.414 20.2611C45.5424 18.2684 44.6128 16.1402 44.3513 15.5404L43.8768 14.457H43.1698C42.521 14.457 42.4532 14.4763 42.3757 14.6698ZM43.9542 18.3651C44.3707 19.3131 44.6805 20.1064 44.6612 20.1257C44.6418 20.1547 43.9445 20.1547 43.1117 20.1451L41.601 20.116L42.2305 18.665C42.5791 17.8621 42.9277 17.0689 43.0052 16.8851C43.0827 16.7013 43.1601 16.5755 43.1795 16.5949C43.1989 16.6142 43.5475 17.4074 43.9542 18.3651Z" fill="#7A7A7A"/>
<path d="M49.5323 17.2623H47.7891V18.607L49.4838 18.665L49.5323 20.7545C49.5807 22.815 49.5807 22.844 49.8422 23.2309C50.3554 24.0048 51.3141 24.3337 52.4956 24.1402C53.4737 23.9758 53.4834 23.9564 53.2413 23.289C53.0282 22.6989 53.0573 22.7086 52.3697 22.8343C51.8274 22.9407 51.3819 22.7956 51.1786 22.457C51.0042 22.1765 50.9849 21.9637 50.9849 20.3772V18.6166H52.8249V17.2623H50.9849V15.3276H49.5323V17.2623Z" fill="#7A7A7A"/>
<path d="M55.149 17.2623H53.5996V18.6166H55.149V20.5707C55.149 22.4184 55.1684 22.5635 55.3718 23.0181C55.8657 24.0629 57.2602 24.4885 58.7128 24.0242C59.0711 23.9081 59.0808 23.8791 58.858 23.1922C58.7322 22.7956 58.6547 22.6892 58.5482 22.7279C58.1802 22.873 57.4635 22.8924 57.173 22.7763C56.6791 22.5635 56.6017 22.2346 56.6017 20.3095V18.6166H58.7418L58.6837 17.3107L56.6017 17.2527V15.3276H55.149V17.2623Z" fill="#7A7A7A"/>
<path d="M77.0351 17.2527L75.3404 17.3107L75.2823 18.6166H77.0351V20.5707C77.0351 22.3023 77.0641 22.5828 77.2288 22.9504C77.4418 23.4244 77.8098 23.792 78.294 24.0145C78.7589 24.2176 80.1534 24.2176 80.6376 24.0048L80.9959 23.85L80.7828 23.2696C80.6279 22.8246 80.5311 22.6892 80.4245 22.7376C80.0662 22.873 79.3496 22.8924 79.0591 22.7763C78.5652 22.5635 78.4877 22.2346 78.4877 20.3095V18.6166H80.6279L80.5698 17.3107L78.4877 17.2527V15.3276H77.0351V17.2527Z" fill="#7A7A7A"/>
<path d="M62.354 17.2527C61.3565 17.5042 60.4366 18.2587 60.0105 19.1777C59.778 19.6614 59.749 19.8452 59.749 20.7448C59.749 21.6541 59.778 21.8186 60.0105 22.3023C60.3494 22.9697 60.9304 23.5792 61.5793 23.9178C62.0344 24.1596 62.1603 24.1789 63.2353 24.1789C64.2908 24.1789 64.4458 24.1596 64.9493 23.9178C65.482 23.6759 66.2857 22.9601 66.2857 22.7376C66.2761 22.6795 66.0436 22.4667 65.7628 22.2732L65.2495 21.9153L64.9687 22.2055C63.7679 23.4728 61.4437 22.9601 61.1822 21.3833L61.1241 21.035H63.7969C66.8668 21.035 66.6441 21.1221 66.4891 20.0193C66.247 18.3071 65.0946 17.2623 63.3805 17.2043C62.9835 17.1849 62.5186 17.2043 62.354 17.2527ZM64.0197 18.607C64.4555 18.8101 64.8719 19.2841 64.9784 19.7001L65.0462 19.9709H63.1481C61.5018 19.9709 61.25 19.9516 61.25 19.8258C61.25 19.3808 61.8989 18.694 62.4799 18.5199C62.9447 18.3845 63.6033 18.4232 64.0197 18.607Z" fill="#7A7A7A"/>
<path d="M70.8373 17.2527C70.4499 17.3784 70.0141 17.6203 69.8785 17.7847C69.6849 18.0169 69.5783 17.9685 69.5783 17.6493C69.5783 17.4848 69.5396 17.3494 69.4815 17.3494C69.191 17.3107 68.3485 17.301 68.2516 17.3397C68.1548 17.3687 68.1257 18.1426 68.1257 20.7545V24.1306H69.5783V19.5356L69.8882 19.1584C70.663 18.2103 72.1156 18.3071 72.6191 19.3422C72.7935 19.6807 72.8128 19.9516 72.8225 21.9056L72.8322 24.0822L74.3235 24.1402V22.0217C74.3235 19.2454 74.2073 18.636 73.5294 17.9492C73.0452 17.4558 72.5223 17.2333 71.7573 17.2043C71.3893 17.1849 70.9728 17.2043 70.8373 17.2527Z" fill="#7A7A7A"/>
<path d="M95.2025 17.3107C94.1275 17.6106 93.1688 18.5779 92.8589 19.6614C92.6265 20.4353 92.704 21.5961 93.0332 22.2926C93.3334 22.9407 93.9532 23.5792 94.602 23.9178C95.0572 24.1596 95.1831 24.1789 96.258 24.1789C97.3136 24.1789 97.4685 24.1596 97.9721 23.9178C98.5047 23.6759 99.3085 22.9601 99.3085 22.7376C99.2988 22.6795 99.0664 22.4667 98.7856 22.2732L98.2723 21.9153L98.0399 22.1572C97.6332 22.5925 97.3039 22.7763 96.7616 22.8827C95.5317 23.1052 94.3793 22.4377 94.205 21.3833L94.1469 21.035H96.8197C99.8896 21.035 99.6668 21.1221 99.5119 20.0193C99.2698 18.3071 98.1174 17.2623 96.4033 17.2043C95.9772 17.1849 95.4736 17.2333 95.2025 17.3107ZM97.0424 18.607C97.4782 18.8101 97.8946 19.2841 98.0012 19.7001L98.0689 19.9709H96.1709C94.0985 19.9709 94.1178 19.9806 94.4084 19.4099C94.8635 18.5489 96.0837 18.1717 97.0424 18.607Z" fill="#7A7A7A"/>
<path d="M82.2742 17.3397C82.1967 17.3687 82.1677 18.3361 82.1677 20.7545V24.1306H83.6203V20.7448C83.6203 18.8778 83.5912 17.3494 83.5525 17.3494C83.3298 17.3107 82.371 17.3107 82.2742 17.3397Z" fill="#7A7A7A"/>
<path d="M84.8889 17.3494C84.8502 17.3881 85.4893 18.9165 86.3221 20.7738L87.8329 24.1306L88.501 24.1112L89.1789 24.0822L90.6993 20.7448C91.5322 18.9068 92.1907 17.3881 92.1713 17.3591C92.152 17.3301 91.8033 17.3107 91.3966 17.3107C90.7671 17.301 90.6509 17.3301 90.5444 17.5042C90.4766 17.6106 89.9924 18.6843 89.4695 19.8935C88.9465 21.1027 88.4914 22.0604 88.4526 22.0217C88.4236 21.983 87.9684 20.977 87.4552 19.7775C86.9419 18.5779 86.4771 17.5332 86.4286 17.4655C86.3705 17.3591 86.1478 17.3204 85.6636 17.3107C85.2859 17.301 84.9373 17.3204 84.8889 17.3494Z" fill="#7A7A7A"/>
<path d="M23.93 9.93461L15.4058 28H32.474L23.93 9.93461Z" fill="#7A7A7A"/>
</g>
<defs>
<clipPath id="clip0_10819_896">
<rect width="99.1161" height="28" fill="white" transform="translate(0.472656)"/>
</clipPath>
</defs>
</svg>
