<svg width="88" height="28" viewBox="0 0 88 28" fill="none" xmlns="http://www.w3.org/2000/svg">
<g clip-path="url(#clip0_10819_890)">
<path fill-rule="evenodd" clip-rule="evenodd" d="M61.441 9.57755C60.1198 11.854 57.7594 16.7485 57.7594 16.7485C57.7594 16.7485 56.5704 19.3907 56.0677 22.0907C55.8442 23.2914 56.2758 24.686 56.2758 24.686C56.5987 26.0632 55.0689 25.6849 55.0689 25.6849C53.9515 25.3157 53.9825 23.8149 53.9825 23.8149C53.9825 21.5995 54.9627 19.4582 55.537 18.025C53.5189 18.8252 52.5751 16.8522 53.1494 14.8599L50.8425 17.9894C50.1002 18.8667 49.3688 18.6949 49.3688 18.6949C49.3317 18.6949 48.4441 18.5862 48.489 17.3952C48.5107 16.8185 48.6719 14.4127 48.8567 13.5192C48.8754 13.4257 48.82 13.3327 48.7456 13.4445C47.7836 15.1569 46.2073 17.023 45.8938 17.5404C45.4872 18.2112 45.0792 18.4892 45.0792 18.4892C44.7515 18.7549 44.182 18.554 44.182 18.554C43.5985 18.3364 43.7178 17.6727 43.7178 17.6727L44.2703 13.6634C44.2703 13.6084 44.2521 13.5892 44.1964 13.5892C44.0301 13.5892 42.466 15.769 41.6029 17.2897L41.0377 18.2087C41.0377 18.2087 40.5498 18.9789 39.7962 18.5155C39.2068 18.153 39.3921 17.4755 39.3921 17.4755L41.0084 10.6339C41.0084 10.6152 41.0084 10.5035 40.9154 10.5035C40.4157 10.5035 40.2735 11.8139 39.5902 11.8392C39.2464 11.8519 39.0693 11.7039 39.0693 11.7039C38.6032 11.4342 38.8244 10.7349 38.8244 10.7349C38.8244 10.7349 39.5627 8.76938 40.5411 8.27538C40.5411 8.27538 41.1056 7.91921 41.5759 7.98288C42.0463 8.04655 42.7988 8.16005 42.4038 10.3175L41.9102 13.1239C41.9102 13.1239 41.861 13.3694 41.9374 13.4085C41.9374 13.4085 42.0594 13.5305 42.3051 13.201L45.435 8.89605C46.1092 7.89955 46.904 8.40222 46.904 8.40222C47.4334 8.62821 47.2518 9.28105 47.2518 9.28105C47.2518 9.28105 45.709 14.0459 45.709 14.4925C45.709 14.6415 45.8389 14.6784 45.9125 14.5674C46.56 13.5804 47.9298 11.4392 49.0778 10.0059C49.5955 9.37305 49.8922 9.09355 50.4655 9.14955C51.0206 9.20538 51.2799 9.55905 51.2799 10.1175C51.2799 10.2107 51.2612 10.3224 51.2433 10.4342C51.2433 10.4342 50.2251 13.9529 50.1505 15.833C50.1505 15.833 50.1348 16.1034 50.206 16.158C50.3432 16.2634 50.5126 16.0262 50.5126 16.0262C51.0822 15.3949 52.9041 12.498 53.3159 11.7372L54.634 9.03955C54.634 9.03955 55.1933 7.81221 55.9404 8.00305C55.9404 8.00305 57.1291 8.12371 56.5548 9.42505C56.4607 9.63805 55.5557 11.1175 54.7779 14.1715C54.6485 14.6364 54.4817 15.9959 55.3143 15.9959C55.6846 15.9959 56.1661 15.6974 56.6658 14.785L59.9414 8.86521C60.2189 8.56688 60.4386 8.40222 60.8268 8.40222C62.0397 8.40222 61.441 9.57755 61.441 9.57755ZM63.7338 6.33933C63.7338 2.84283 60.9317 0 57.4769 0H42.1906C38.7346 0 35.9328 2.84283 35.9328 6.33933L35.9361 21.657C35.9361 25.1525 38.7374 28 42.1931 28H57.4792C60.9348 28 63.7352 25.1533 63.7352 21.657L63.7338 6.33933Z" fill="#7A7A7A"/>
<path fill-rule="evenodd" clip-rule="evenodd" d="M6.11763 17.5098H4.38434V13.5851C4.38434 13.0259 4.29586 12.6083 4.11973 12.3329C3.94344 12.0576 3.64552 11.9196 3.22484 11.9196C2.91864 11.9196 2.63829 11.9956 2.38379 12.1479C2.12846 12.3008 1.91207 12.5176 1.73345 12.7988V17.5098H0V10.3823H0.987184L1.63885 11.3409C1.77885 11.2128 1.99127 11.0513 2.16326 10.9394C2.33541 10.8276 2.51701 10.7293 2.70838 10.6456C2.89925 10.5621 3.1004 10.4968 3.31066 10.4479C3.52092 10.3994 3.73665 10.3754 3.95769 10.3754C4.21202 10.3754 4.43653 10.4024 4.62923 10.4574C4.82292 10.5116 4.99375 10.5911 5.14237 10.6963C5.291 10.8008 5.42106 10.9266 5.53141 11.0741C5.64193 11.2224 5.73919 11.3894 5.82419 11.5759C5.96022 11.4393 6.11415 11.2998 6.28647 11.1563C6.45845 11.0129 6.64867 10.8836 6.85694 10.7676C7.06521 10.6518 7.29221 10.5574 7.53859 10.4846C7.7853 10.4118 8.0524 10.3754 8.34186 10.3754C8.73222 10.3754 9.06427 10.4556 9.33898 10.6154C9.61304 10.7758 9.83589 10.9974 10.0082 11.2809C10.1802 11.5644 10.3048 11.9019 10.3837 12.2929C10.4622 12.6843 10.5018 13.1108 10.5018 13.5721V17.5098H8.76835V13.5851C8.76835 13.0259 8.68136 12.6083 8.50705 12.3329C8.33308 12.0576 8.04163 11.9196 7.63452 11.9196C7.32849 11.9196 7.04781 11.9913 6.79265 12.1343C6.53798 12.2774 6.31314 12.4983 6.11763 12.7988V17.5098Z" fill="#7A7A7A"/>
<path fill-rule="evenodd" clip-rule="evenodd" d="M16.2184 14.2704H14.6634C14.2474 14.2704 13.9433 14.3691 13.7518 14.5299C13.5609 14.6901 13.4653 14.9144 13.4653 15.2012C13.4653 15.4751 13.5462 15.6861 13.7077 15.8346C13.8691 15.9822 14.1155 16.0572 14.4464 16.0572C14.6465 16.0572 14.8363 16.0302 15.0172 15.9769C15.198 15.9229 15.3645 15.8512 15.5174 15.7601C15.67 15.6689 15.8059 15.5612 15.9252 15.4351C16.0436 15.3094 16.1416 15.1766 16.2184 15.0371V14.2704ZM16.2179 16.7251C16.0176 16.9443 15.7035 17.1489 15.3486 17.2966C14.9936 17.4433 14.5698 17.5174 14.0774 17.5174C13.7332 17.5174 13.4231 17.4621 13.1464 17.3508C12.8703 17.2404 12.6342 17.0848 12.4365 16.8841C12.239 16.6834 12.0869 16.4469 11.9804 16.1731C11.8745 15.8989 11.8217 15.5999 11.8217 15.2746C11.8217 13.9466 12.8423 13.1026 14.4778 13.1026H16.205V12.7086C16.205 12.4653 16.0832 12.2738 15.8388 12.1351C15.5949 11.9964 15.22 11.9263 14.7143 11.9263C14.2427 11.9263 13.8061 11.9763 13.405 12.0758C13.0039 12.1746 12.7813 12.2584 12.4372 12.4011L12.223 10.9134C12.35 10.8571 12.5055 10.7978 12.6882 10.7351C12.8703 10.6723 13.0749 10.6144 13.2998 10.5603C13.525 10.5073 13.7692 10.4624 14.0326 10.4278C14.2956 10.3924 14.5723 10.3754 14.8609 10.3754C15.8635 10.3754 16.6164 10.6221 17.1201 11.1166C17.623 11.6101 17.8748 12.3123 17.8748 13.2224V17.5098H16.6398L16.2179 16.7251Z" fill="#7A7A7A"/>
<path fill-rule="evenodd" clip-rule="evenodd" d="M26.073 10.2755L23.2469 13.841L26.4614 17.5091H24.2823L21.3098 13.8901V17.5091H19.5767V7.72613H21.3098V13.8901L23.9573 10.2755H26.073Z" fill="#7A7A7A"/>
<path fill-rule="evenodd" clip-rule="evenodd" d="M29.9283 11.9128C29.6991 11.9128 29.4908 11.9411 29.3034 11.9984C29.1167 12.0556 28.9532 12.1373 28.8132 12.2418C28.6732 12.3469 28.558 12.4736 28.4687 12.6221C28.3797 12.7718 28.3183 12.9356 28.2841 13.1148H31.3622C31.3622 12.9543 31.3333 12.8008 31.2757 12.6539C31.2187 12.5068 31.1305 12.3791 31.0112 12.2708C30.8926 12.1614 30.7426 12.0748 30.5625 12.0099C30.3816 11.9453 30.1707 11.9128 29.9283 11.9128ZM30.2529 15.9801C30.5587 15.9801 30.8361 15.9551 31.0845 15.9066C31.333 15.8581 31.5593 15.7934 31.763 15.7144C31.9673 15.6349 32.1522 15.5426 32.3175 15.4384C32.4831 15.3334 32.4254 15.3833 32.5613 15.2754L32.8956 16.8154C32.5894 17.0116 32.157 17.1853 31.7214 17.3176C31.2861 17.4504 30.7907 17.5174 30.234 17.5174C29.6266 17.5174 29.0887 17.4316 28.622 17.2611C28.1544 17.0901 27.7601 16.8504 27.4391 16.5403C27.119 16.2301 26.8751 15.8581 26.7097 15.4223C26.5444 14.9864 26.4612 14.5034 26.4612 13.9736C26.4612 13.4839 26.5369 13.0211 26.6875 12.5853C26.8383 12.1493 27.0593 11.7679 27.3501 11.4399C27.6413 11.1118 28.0011 10.8526 28.4303 10.6616C28.8597 10.4711 29.3547 10.3754 29.9152 10.3754C30.4805 10.3754 30.9673 10.4661 31.3779 10.6473C31.7872 10.8286 32.1253 11.0699 32.3904 11.3711C32.6564 11.6731 32.8526 12.0193 32.9806 12.4104C33.108 12.8014 33.1548 13.2069 33.1548 13.6268C33.1548 13.7399 33.1481 13.8701 33.1354 14.0161C33.1226 14.1623 33.1061 14.2863 33.0845 14.3868H28.2523C28.2775 14.6333 28.3413 14.8549 28.4432 15.0503C28.5449 15.2463 28.6821 15.4128 28.8541 15.5501C29.0264 15.6874 29.2301 15.7934 29.4657 15.8679C29.7014 15.9429 29.9641 15.9801 30.2529 15.9801Z" fill="#7A7A7A"/>
<path fill-rule="evenodd" clip-rule="evenodd" d="M65.4397 11.3925L67.7814 8.58898H68.2949V10.3813H70.2956V11.933H68.2949V14.854C68.2949 15.057 68.3191 15.2265 68.3681 15.3621C68.4163 15.4968 68.4841 15.6045 68.5693 15.6861C68.6536 15.767 68.7514 15.824 68.8616 15.8585C68.9722 15.8921 69.0895 15.9088 69.2123 15.9088C69.4416 15.9088 69.6446 15.8868 69.8204 15.8423C69.9972 15.7983 70.1538 15.7423 70.2895 15.6758V17.2291C70.1021 17.323 69.9057 17.394 69.7 17.4428C69.4938 17.4923 69.2422 17.5165 68.9446 17.5165C68.5242 17.5165 68.1628 17.4666 67.8616 17.3661C67.5601 17.2656 67.3133 17.121 67.1228 16.9298C66.9304 16.7381 66.7894 16.5056 66.6985 16.2328C66.6073 15.96 66.5609 15.6506 66.5609 15.3046V11.933H65.4397V11.3925Z" fill="#7A7A7A"/>
<path fill-rule="evenodd" clip-rule="evenodd" d="M73.2513 11.8509C73.4851 11.4238 73.9036 11.0124 74.2499 10.7574C74.5957 10.5028 75.0116 10.3754 75.4953 10.3754C75.6608 10.3754 75.7965 10.3838 75.9004 10.4003C76.0044 10.4168 76.0838 10.4328 76.1391 10.4469C76.1391 10.4469 76.0838 10.8501 75.8205 12.0813C75.7138 12.0576 75.5867 12.0456 75.4378 12.0456C75.1107 12.0456 74.8192 12.1021 74.5618 12.2159C74.3048 12.3298 74.0871 12.4938 73.9091 12.7069C73.731 12.9206 73.5936 13.1829 73.498 13.4919C73.4018 13.8013 73.3544 14.1514 73.3544 14.5421V17.5098H71.6209V10.3821H72.7316L73.2513 11.8509Z" fill="#7A7A7A"/>
<path fill-rule="evenodd" clip-rule="evenodd" d="M84.0187 11.934C83.7983 11.934 83.598 11.9669 83.4199 12.0329C83.2419 12.0984 83.0844 12.1839 82.9483 12.2895C82.8121 12.394 82.6957 12.5142 82.5981 12.648C82.5003 12.7814 82.4209 12.9187 82.3625 13.059V15.083C82.4297 15.2052 82.5185 15.321 82.6261 15.4305C82.7346 15.5395 82.8564 15.6355 82.9929 15.7187C83.1289 15.8017 83.2802 15.868 83.4484 15.9189C83.6162 15.9687 83.7955 15.9937 83.9871 15.9937C84.2797 15.9937 84.534 15.9457 84.7482 15.8492C84.9628 15.7537 85.1409 15.619 85.2837 15.4467C85.4261 15.2734 85.5318 15.066 85.5991 14.8232C85.667 14.5809 85.7008 14.3129 85.7008 14.0197C85.7008 13.7139 85.6607 13.4329 85.5795 13.1769C85.4991 12.9209 85.385 12.7014 85.2359 12.5177C85.0864 12.3342 84.9098 12.1905 84.7037 12.0882C84.4971 11.9852 84.2694 11.934 84.0187 11.934ZM85.818 10.6746C86.1946 10.8748 86.5056 11.1423 86.7515 11.4771C86.9982 11.8119 87.1798 12.1979 87.2968 12.6366C87.4133 13.0738 87.4718 13.5291 87.4718 14.0001C87.4718 14.4811 87.4101 14.9331 87.287 15.3581C87.1637 15.7828 86.9782 16.1553 86.7296 16.4766C86.4811 16.7971 86.1719 17.0511 85.8019 17.2378C85.4329 17.4246 84.9997 17.5174 84.5022 17.5174C84.0181 17.5174 83.6093 17.4466 83.2756 17.3038C82.9423 17.1624 82.65 16.9538 82.3998 16.6786L82.3743 16.6934V20.3894H80.6413V10.3823H81.6779L82.34 11.2504C82.5912 10.9923 82.9481 10.7414 83.2949 10.5951C83.6415 10.4486 84.0323 10.3754 84.4706 10.3754C84.993 10.3754 85.4429 10.4759 85.818 10.6746Z" fill="#7A7A7A"/>
<path fill-rule="evenodd" clip-rule="evenodd" d="M77.924 7.44965C77.4248 7.44965 77.0213 7.85632 77.0213 8.35815C77.0213 8.86015 77.4248 9.26715 77.924 9.26715C78.4229 9.26715 78.8272 8.86015 78.8272 8.35815C78.8272 7.85632 78.4229 7.44965 77.924 7.44965ZM77.0578 17.512H78.7909V10.3845H77.0578V17.512Z" fill="#7A7A7A"/>
</g>
<defs>
<clipPath id="clip0_10819_890">
<rect width="87.4718" height="28" fill="white"/>
</clipPath>
</defs>
</svg>
