<svg width="49" height="32" viewBox="0 0 49 32" fill="none" xmlns="http://www.w3.org/2000/svg">
<path fill-rule="evenodd" clip-rule="evenodd" d="M46.3334 4.05671C45.1335 1.8084 43.5908 0.523652 41.9338 0.348459C26.3921 -1.14068 6.56503 2.39238 2.5082 6.21743C0.736902 7.88176 0.422641 11.7944 1.53684 18.189C2.30821 22.6564 3.50812 26.6566 3.53669 26.8318L3.79381 27.7078L8.73629 27.153C9.13626 29.8977 11.4504 32 14.2502 32C17.3071 32 19.8212 29.4597 19.8212 26.3062C19.8212 26.1602 19.8212 26.0434 19.7926 25.8974L31.506 24.5251C31.506 24.5543 31.506 24.6127 31.506 24.6419C31.506 27.7662 33.9915 30.3357 37.077 30.3357C40.1339 30.3357 42.648 27.7954 42.648 24.6419C42.648 24.1747 42.5908 23.7075 42.4766 23.2695L47.4762 22.6856L47.7333 22.1308C49.7332 17.9262 49.0475 9.13731 46.3334 4.05671ZM14.2502 29.7517C12.3932 29.7517 10.879 28.2042 10.879 26.3062C10.879 24.4083 12.3932 22.8608 14.2502 22.8608C16.1072 22.8608 17.6213 24.4083 17.6213 26.3062C17.6213 28.2042 16.1072 29.7517 14.2502 29.7517ZM37.0484 28.1166C35.1914 28.1166 33.6772 26.569 33.6772 24.6711C33.6772 22.7732 35.1914 21.2256 37.0484 21.2256C38.9054 21.2256 40.4196 22.7732 40.4196 24.6711C40.4196 26.569 38.9054 28.1166 37.0484 28.1166ZM45.962 20.6125L41.4195 21.138C41.0767 20.6709 40.6481 20.2913 40.191 19.9701C39.3054 19.3277 38.2197 18.9773 37.0484 18.9773C35.3343 18.9773 33.7629 19.7949 32.763 21.0504C32.4488 21.4008 32.1631 21.8096 31.8774 22.2476L19.1926 23.7075C19.0784 23.4739 18.9355 23.2403 18.7927 23.036C18.7641 23.0068 18.7641 22.9776 18.7355 22.9484C17.707 21.5468 16.0786 20.6125 14.2502 20.6125C12.8217 20.6125 11.5361 21.1672 10.5647 22.0432C9.73621 22.744 9.10769 23.7075 8.73629 24.8755L5.36512 25.2551C3.56526 18.8605 2.02252 9.72129 3.9938 7.85256C6.70787 5.28306 20.6211 2.21718 34.2201 2.21718C36.7627 2.21718 39.2768 2.33398 41.7052 2.56757C42.6194 2.68437 43.5908 3.58953 44.4193 5.13707C46.6477 9.3125 47.3619 16.8458 45.962 20.6125ZM8.99341 12.174C8.87914 12.0864 8.70772 11.9988 8.47917 11.9112C8.25061 11.8236 7.99349 11.7944 7.7078 11.7944C7.36497 11.7944 7.07927 11.8528 6.82215 11.9404C6.5936 12.0572 6.39361 12.174 6.2222 12.3492V16.9626H4.33663V10.1301L6.2222 10.0133V10.6848L6.82215 10.3053C7.02214 10.1885 7.22212 10.1009 7.47924 10.0133C7.73637 9.92568 7.93635 9.89648 8.16491 9.89648C8.39346 9.89648 8.56487 9.89648 8.67915 9.92568C8.822 9.95488 8.90771 9.98408 8.99341 10.0133V12.174ZM14.3644 12.9332C14.2787 12.4076 14.0787 12.028 13.793 11.7652C13.5074 11.5024 13.1645 11.3856 12.736 11.3856C12.2503 11.3856 11.8789 11.5316 11.6218 11.8236C11.3647 12.1156 11.2218 12.4952 11.1647 12.9624H14.3644V12.9332ZM16.1357 13.8383H11.1932C11.3075 14.3931 11.5075 14.8019 11.8218 15.0355C12.136 15.2691 12.536 15.4151 12.9931 15.4151C13.3645 15.4151 13.7645 15.3567 14.2216 15.2399C14.6787 15.1231 15.0215 14.9771 15.2786 14.8019V16.5246C15.0215 16.6998 14.6787 16.8458 14.1644 16.9334C13.6788 17.021 13.2788 17.0794 12.9931 17.0794C11.8218 17.0794 10.879 16.7582 10.2219 16.0866C9.5648 15.4151 9.22197 14.5391 9.22197 13.4295C9.22197 12.32 9.5648 11.4148 10.2505 10.7432C10.9361 10.0717 11.7646 9.72129 12.7931 9.72129C13.8216 9.72129 14.6216 10.1009 15.2215 10.8308C15.8215 11.5608 16.1357 12.5828 16.1357 13.8383ZM21.5353 14.8603V11.8528C21.421 11.7068 21.2496 11.59 21.0211 11.5024C20.7925 11.4148 20.5354 11.3564 20.2497 11.3564C19.7354 11.3564 19.3355 11.5024 19.1069 11.8236C18.8498 12.1448 18.7355 12.6412 18.7355 13.3127C18.7355 14.0135 18.8784 14.5099 19.1355 14.8603C19.3926 15.2107 19.764 15.3567 20.2211 15.3567C20.5068 15.3567 20.7639 15.2983 20.9925 15.2107C21.221 15.1231 21.3925 15.0063 21.5353 14.8603ZM23.3923 16.9626H21.9639L21.5639 16.3202L20.564 16.875C20.4783 16.9334 20.364 16.9626 20.1926 16.9918C20.0211 17.021 19.9069 17.021 19.7926 17.021C18.8212 17.021 18.0784 16.6998 17.5642 15.999C17.0499 15.3275 16.7928 14.4807 16.7928 13.4587C16.7928 12.3492 17.1071 11.4732 17.707 10.8308C18.3356 10.1885 19.1355 9.86728 20.1354 9.86728C20.4211 9.86728 20.6782 9.89648 20.9068 9.92568C21.1353 9.98408 21.3353 10.0425 21.5353 10.1885V7.18099H23.3923V16.9626ZM29.7918 13.8675C29.7918 13.3711 29.649 12.9916 29.3919 12.758C29.1347 12.5244 28.7633 12.4076 28.3348 12.4076H27.0206V15.3275H28.5062C28.9347 15.3275 29.2776 15.2107 29.4776 14.9479C29.6775 14.7143 29.7918 14.3347 29.7918 13.8675ZM29.449 10.1593C29.449 9.77968 29.3347 9.4585 29.1062 9.22491C28.8776 8.99132 28.5633 8.87452 28.1634 8.87452H27.0206V11.5024H28.2777C28.6491 11.5024 28.9347 11.3856 29.1347 11.152C29.3633 10.8892 29.449 10.5681 29.449 10.1593ZM31.9059 14.1303C31.9059 14.9771 31.6488 15.6778 31.106 16.1742C30.5632 16.6998 29.8775 16.9334 29.049 16.9334H24.9636V7.21019H28.9633C29.7061 7.21019 30.3346 7.41458 30.7917 7.85256C31.2774 8.29054 31.506 8.87452 31.506 9.63369C31.506 10.2469 31.3631 10.714 31.0774 11.0936C30.7917 11.4732 30.3632 11.6776 29.7918 11.7652C30.3632 11.8528 30.8489 12.1156 31.2774 12.5244C31.706 12.9332 31.9059 13.4587 31.9059 14.1303ZM39.3339 16.9626H37.4484V16.2034L36.6484 16.6706C36.4199 16.7874 36.1913 16.9042 35.9628 16.9626C35.7342 17.021 35.4485 17.0794 35.1914 17.0794C34.5343 17.0794 34.0201 16.875 33.6201 16.4662C33.2487 16.0574 33.0487 15.5027 33.0487 14.8019V10.1593H34.9343V14.3639C34.9343 14.6267 35.02 14.8311 35.1914 15.0355C35.3628 15.2399 35.6485 15.3275 35.9913 15.3275C36.3342 15.3275 36.6199 15.2691 36.8484 15.1231C37.1055 14.9771 37.277 14.8603 37.3912 14.7143V10.1301H39.2768V16.9626H39.3339ZM45.9049 14.6267C45.9049 15.3567 45.6477 15.9698 45.1335 16.437C44.6193 16.875 43.9622 17.1086 43.1908 17.1086C42.8194 17.1086 42.3909 17.0794 41.9052 16.9918C41.3909 16.9042 40.9624 16.7582 40.5624 16.5538V14.8311C40.8767 15.0063 41.2195 15.1523 41.6195 15.2983C42.0195 15.4151 42.448 15.5027 42.9908 15.5027C43.3622 15.5027 43.6479 15.4443 43.8765 15.3567C44.105 15.2399 44.2193 15.0647 44.2193 14.7727C44.2193 14.5975 44.1336 14.4223 43.9336 14.3055C43.7336 14.1887 43.4193 14.1011 42.9337 14.0719C42.0766 14.0135 41.5052 13.7799 41.1624 13.4295C40.8195 13.0792 40.6481 12.612 40.6481 12.028C40.6481 11.3564 40.9053 10.8308 41.4195 10.3929C41.9337 9.95488 42.5908 9.75049 43.3336 9.75049C43.6765 9.75049 44.0193 9.77968 44.3907 9.83808C44.7621 9.89648 45.0764 9.95488 45.3621 10.0717V11.8236C45.0192 11.6776 44.705 11.5608 44.3907 11.5024C44.0764 11.444 43.705 11.3856 43.3336 11.3856C43.0194 11.3856 42.7908 11.444 42.6194 11.5316C42.448 11.6484 42.3623 11.7652 42.3623 11.882C42.3623 12.1448 42.4766 12.32 42.7337 12.3784C42.9622 12.466 43.2194 12.5244 43.5051 12.5244C44.305 12.5828 44.9335 12.7872 45.3335 13.1376C45.7049 13.5171 45.9049 14.0135 45.9049 14.6267Z" fill="#7A7A7A"/>
</svg>
