<svg width="43" height="28" viewBox="0 0 43 28" fill="none" xmlns="http://www.w3.org/2000/svg">
<g clip-path="url(#clip0_10819_892)">
<path fill-rule="evenodd" clip-rule="evenodd" d="M40.2385 3.54962C39.1886 1.58235 37.8387 0.458196 36.3888 0.304902C22.7898 -0.998096 5.44118 2.09333 1.89145 5.44025C0.341567 6.89654 0.066588 10.3201 1.04151 15.9153C1.71646 19.8243 2.76638 23.3245 2.79138 23.4778L3.01636 24.2443L7.34103 23.7589C7.691 26.1605 9.71585 28 12.1657 28C14.8405 28 17.0403 25.7772 17.0403 23.0179C17.0403 22.8902 17.0403 22.788 17.0153 22.6603L27.2645 21.4595C27.2645 21.485 27.2645 21.5361 27.2645 21.5617C27.2645 24.2954 29.4393 26.5437 32.1391 26.5437C34.8139 26.5437 37.0138 24.3209 37.0138 21.5617C37.0138 21.1529 36.9638 20.7441 36.8638 20.3609L41.2384 19.8499L41.4634 19.3644C43.2133 15.6854 42.6133 7.99515 40.2385 3.54962ZM12.1657 26.0327C10.5408 26.0327 9.21589 24.6786 9.21589 23.0179C9.21589 21.3573 10.5408 20.0032 12.1657 20.0032C13.7905 20.0032 15.1154 21.3573 15.1154 23.0179C15.1154 24.6786 13.7905 26.0327 12.1657 26.0327ZM32.1141 24.602C30.4893 24.602 29.1644 23.2479 29.1644 21.5872C29.1644 19.9265 30.4893 18.5724 32.1141 18.5724C33.739 18.5724 35.0639 19.9265 35.0639 21.5872C35.0639 23.2479 33.739 24.602 32.1141 24.602ZM39.9135 18.0359L35.9388 18.4958C35.6389 18.087 35.2639 17.7549 34.8639 17.4738C34.089 16.9117 33.1391 16.6052 32.1141 16.6052C30.6142 16.6052 29.2394 17.3205 28.3644 18.4191C28.0894 18.7257 27.8395 19.0834 27.5895 19.4666L16.4903 20.7441C16.3903 20.5397 16.2653 20.3353 16.1404 20.1565C16.1154 20.1309 16.1154 20.1054 16.0904 20.0798C15.1904 18.8535 13.7655 18.0359 12.1657 18.0359C10.9158 18.0359 9.79084 18.5213 8.94091 19.2878C8.21596 19.901 7.66601 20.7441 7.34103 21.766L4.39126 22.0982C2.81638 16.503 1.46648 8.50613 3.19135 6.87099C5.56617 4.62268 17.7402 1.94004 29.6393 1.94004C31.8642 1.94004 34.064 2.04223 36.1888 2.24662C36.9888 2.34882 37.8387 3.14084 38.5636 4.49494C40.5135 8.14844 41.1384 14.7401 39.9135 18.0359ZM7.56601 10.6522C7.46602 10.5756 7.31603 10.4989 7.11605 10.4223C6.91606 10.3457 6.69108 10.3201 6.4411 10.3201C6.14112 10.3201 5.89114 10.3712 5.66616 10.4478C5.46617 10.55 5.29119 10.6522 5.1412 10.8055V14.8423H3.49133V8.86381L5.1412 8.76162V9.34924L5.66616 9.01711C5.84115 8.91491 6.01613 8.83826 6.24112 8.76162C6.4661 8.68497 6.64109 8.65942 6.84107 8.65942C7.04105 8.65942 7.19104 8.65942 7.29103 8.68497C7.41603 8.71052 7.49102 8.73607 7.56601 8.76162V10.6522ZM12.2657 11.3165C12.1907 10.8566 12.0157 10.5245 11.7657 10.2946C11.5157 10.0646 11.2157 9.96242 10.8408 9.96242C10.4158 9.96242 10.0908 10.0902 9.86584 10.3457C9.64085 10.6011 9.51586 10.9333 9.46587 11.3421H12.2657V11.3165ZM13.8155 12.1085H9.49087C9.59086 12.594 9.76585 12.9516 10.0408 13.156C10.3158 13.3604 10.6658 13.4882 11.0657 13.4882C11.3907 13.4882 11.7407 13.4371 12.1407 13.3349C12.5406 13.2327 12.8406 13.1049 13.0656 12.9516V14.459C12.8406 14.6123 12.5406 14.7401 12.0907 14.8167C11.6657 14.8934 11.3157 14.9445 11.0657 14.9445C10.0408 14.9445 9.21589 14.6634 8.64093 14.0758C8.06598 13.4882 7.766 12.7217 7.766 11.7508C7.766 10.78 8.06598 9.98797 8.66593 9.40034C9.26588 8.81271 9.99083 8.50613 10.8908 8.50613C11.7907 8.50613 12.4906 8.83826 13.0156 9.47699C13.5406 10.1157 13.8155 11.0099 13.8155 12.1085ZM18.5402 13.0027V10.3712C18.4402 10.2435 18.2902 10.1413 18.0902 10.0646C17.8902 9.98797 17.6652 9.93687 17.4153 9.93687C16.9653 9.93687 16.6153 10.0646 16.4153 10.3457C16.1904 10.6267 16.0904 11.061 16.0904 11.6487C16.0904 12.2618 16.2154 12.6962 16.4403 13.0027C16.6653 13.3093 16.9903 13.4371 17.3903 13.4371C17.6402 13.4371 17.8652 13.386 18.0652 13.3093C18.2652 13.2327 18.4152 13.1305 18.5402 13.0027ZM20.165 14.8423H18.9151L18.5652 14.2802L17.6902 14.7656C17.6152 14.8167 17.5153 14.8423 17.3653 14.8678C17.2153 14.8934 17.1153 14.8934 17.0153 14.8934C16.1654 14.8934 15.5154 14.6123 15.0654 13.9992C14.6155 13.4115 14.3905 12.6706 14.3905 11.7764C14.3905 10.8055 14.6655 10.0391 15.1904 9.47699C15.7404 8.91491 16.4403 8.63387 17.3153 8.63387C17.5652 8.63387 17.7902 8.65942 17.9902 8.68497C18.1902 8.73607 18.3652 8.78717 18.5402 8.91491V6.28336H20.165V14.8423ZM25.7646 12.1341C25.7646 11.6997 25.6396 11.3676 25.4146 11.1632C25.1897 10.9588 24.8647 10.8566 24.4897 10.8566H23.3398V13.4115H24.6397C25.0147 13.4115 25.3147 13.3093 25.4896 13.0794C25.6646 12.875 25.7646 12.5429 25.7646 12.1341ZM25.4646 8.88936C25.4646 8.55722 25.3647 8.27619 25.1647 8.07179C24.9647 7.8674 24.6897 7.76521 24.3397 7.76521H23.3398V10.0646H24.4397C24.7647 10.0646 25.0147 9.96242 25.1897 9.75803C25.3896 9.52809 25.4646 9.24705 25.4646 8.88936ZM27.6145 12.364C27.6145 13.1049 27.3895 13.7181 26.9145 14.1525C26.4396 14.6123 25.8396 14.8167 25.1147 14.8167H21.5399V6.30891H25.0397C25.6896 6.30891 26.2396 6.48776 26.6396 6.87099C27.0645 7.25423 27.2645 7.76521 27.2645 8.42948C27.2645 8.96601 27.1395 9.37479 26.8895 9.70693C26.6396 10.0391 26.2646 10.2179 25.7646 10.2946C26.2646 10.3712 26.6895 10.6011 27.0645 10.9588C27.4395 11.3165 27.6145 11.7764 27.6145 12.364ZM34.114 14.8423H32.4641V14.178L31.7642 14.5868C31.5642 14.689 31.3642 14.7912 31.1642 14.8423C30.9642 14.8934 30.7142 14.9445 30.4893 14.9445C29.9143 14.9445 29.4643 14.7656 29.1144 14.4079C28.7894 14.0503 28.6144 13.5648 28.6144 12.9516V8.88936H30.2643V12.5684C30.2643 12.7984 30.3393 12.9772 30.4893 13.156C30.6392 13.3349 30.8892 13.4115 31.1892 13.4115C31.4892 13.4115 31.7392 13.3604 31.9391 13.2327C32.1641 13.1049 32.3141 13.0027 32.4141 12.875V8.86381H34.064V14.8423H34.114ZM39.8635 12.7984C39.8635 13.4371 39.6386 13.9736 39.1886 14.3824C38.7386 14.7656 38.1637 14.97 37.4887 14.97C37.1637 14.97 36.7888 14.9445 36.3638 14.8678C35.9138 14.7912 35.5389 14.6634 35.1889 14.4846V12.9772C35.4639 13.1305 35.7639 13.2582 36.1138 13.386C36.4638 13.4882 36.8388 13.5648 37.3137 13.5648C37.6387 13.5648 37.8887 13.5137 38.0887 13.4371C38.2887 13.3349 38.3887 13.1816 38.3887 12.9261C38.3887 12.7728 38.3137 12.6195 38.1387 12.5173C37.9637 12.4151 37.6887 12.3385 37.2637 12.3129C36.5138 12.2618 36.0138 12.0574 35.7139 11.7508C35.4139 11.4443 35.2639 11.0355 35.2639 10.5245C35.2639 9.93687 35.4889 9.47699 35.9388 9.09375C36.3888 8.71052 36.9638 8.53167 37.6137 8.53167C37.9137 8.53167 38.2137 8.55722 38.5386 8.60832C38.8636 8.65942 39.1386 8.71052 39.3886 8.81271V10.3457C39.0886 10.2179 38.8136 10.1157 38.5386 10.0646C38.2637 10.0135 37.9387 9.96242 37.6137 9.96242C37.3387 9.96242 37.1388 10.0135 36.9888 10.0902C36.8388 10.1924 36.7638 10.2946 36.7638 10.3967C36.7638 10.6267 36.8638 10.78 37.0888 10.8311C37.2887 10.9077 37.5137 10.9588 37.7637 10.9588C38.4636 11.0099 39.0136 11.1888 39.3636 11.4954C39.6886 11.8275 39.8635 12.2618 39.8635 12.7984Z" fill="#7A7A7A"/>
</g>
<defs>
<clipPath id="clip0_10819_892">
<rect width="42" height="28" fill="white" transform="translate(0.472656)"/>
</clipPath>
</defs>
</svg>
