<svg width="181" height="28" viewBox="0 0 181 28" fill="none" xmlns="http://www.w3.org/2000/svg">
<g clip-path="url(#clip0_10819_894)">
<path d="M6.73867 8.54438C6.73867 9.63056 7.47248 10.2432 11.8218 11.0029C20.4924 12.5171 22.2354 15.0576 22.2354 18.6634C22.2354 20.8696 21.1433 26 11.0332 26C7.22122 26 1.68628 25.0335 0.567572 18.5646L0.514066 18.255H6.66921L6.73201 18.4371C7.45109 20.5431 8.23033 21.4823 11.5612 21.4823C15.4815 21.4823 15.9346 20.1919 15.9346 19.2215C15.9346 17.8739 15.0497 17.0439 10.2086 16.2439C1.65152 14.8209 0.472656 11.9564 0.472656 9.07385C0.472656 4.77722 4.48113 2 10.6817 2C19.927 2 21.1714 7.23836 21.3332 8.84361L21.3625 9.13497H15.2222L15.166 8.94246C14.8158 7.74572 13.9871 6.52163 10.5052 6.52163C8.7864 6.52163 6.73867 6.87287 6.73867 8.54438Z" fill="#7A7A7A"/>
<path fill-rule="evenodd" clip-rule="evenodd" d="M68.0785 25.8322H75.0409L65.9546 2.27969H57.8507L48.7257 25.8322H55.5304L57.3789 20.5145H66.2687L68.0785 25.8322ZM61.8245 6.81041L65.011 16.3389H58.638L61.8245 6.81041Z" fill="#7A7A7A"/>
<path d="M84.8343 21.0855H97.8542V25.8322H78.0683V2.27969H84.8343V21.0855Z" fill="#7A7A7A"/>
<path d="M101.015 2.27969V25.8322H121.198V21.0855H107.781V16.2674H120.365V11.8069H107.781V7.02508H121.234V2.27969H101.015Z" fill="#7A7A7A"/>
<path fill-rule="evenodd" clip-rule="evenodd" d="M148.089 25.8322L141.326 16.322C142.353 16.0111 143.244 15.5766 143.999 15.0186C145.703 13.7581 146.556 11.9265 146.556 9.52261C146.556 7.33464 145.697 5.57985 143.979 4.25819C142.262 2.93787 139.856 2.27707 136.762 2.27707H124.371V25.8322H131.018V17.2312H135.072L140.616 25.8322H148.089ZM131.017 6.91836H135.815C137.126 6.91836 138.11 7.15642 138.765 7.63252C139.42 8.10863 139.749 8.8579 139.749 9.88033C139.749 10.9028 139.42 11.6885 138.765 12.1646C138.109 12.6406 137.125 12.8787 135.815 12.8787H131.017V6.91836Z" fill="#7A7A7A"/>
<path d="M30.0666 14.1054C30.0666 18.0429 32.8721 20.746 36.5398 20.746C39.2357 20.746 41.3141 18.9873 42.1776 16.2569H47.9758C46.9774 23.1083 42.3981 25.8634 36.5398 25.8634C29.1229 25.8634 24.0251 21.0855 24.0251 14.1041C24.0251 7.12259 29.1229 2.34472 36.5398 2.34472C41.0616 2.34472 45.6448 4.02667 47.3984 8.99839L41.9584 10.7922C40.9947 8.50018 39.0339 7.46474 36.5398 7.46474C32.8721 7.46474 30.0666 10.1678 30.0666 14.1054Z" fill="#7A7A7A"/>
<path d="M180.473 2.2324V2.15956H166.351L164.797 3.6724C164.603 3.86102 164.409 4.04834 164.215 4.23696C162.497 5.9124 160.782 7.59306 159.06 9.2659C158.195 10.1062 157.317 10.9361 156.446 11.7713C156.443 11.7739 156.44 11.7765 156.438 11.7791L156.102 12.0952V25.8409H170.094C170.245 25.7121 170.404 25.5898 170.546 25.4519C172.347 23.7023 174.146 21.9475 175.95 20.1992C176.71 19.4617 177.483 18.7384 178.246 18.0035C178.847 17.4246 179.443 16.8431 180.038 16.2578C180.191 16.1082 180.327 15.9443 180.47 15.7869V7.43566C180.47 5.72509 180.47 4.01582 180.47 2.30525C180.47 2.28053 180.47 2.25451 180.47 2.2324H180.473ZM166.017 21.3739C166.017 21.6393 166.012 21.6432 165.744 21.6432C164.278 21.6432 162.812 21.6432 161.347 21.6432C161.098 21.6432 160.85 21.6575 160.603 21.6614C160.402 21.6653 160.314 21.5781 160.315 21.3713C160.321 19.7375 160.321 18.1036 160.315 16.4698C160.315 16.2799 160.381 16.1823 160.582 16.1849C160.647 16.1849 160.711 16.1784 160.774 16.1784C162.403 16.1784 164.032 16.1784 165.663 16.1784C166.005 16.1784 166.018 16.1927 166.018 16.5323C166.018 17.3284 166.018 18.1244 166.018 18.9205C166.018 19.7375 166.018 20.5544 166.018 21.3713L166.017 21.3739ZM174.988 8.70785H174.984C174.984 12.2903 174.984 15.8727 174.988 19.4539L170.181 24.1329V12.1121H157.877L162.539 7.57485C162.591 7.56314 162.648 7.55663 162.708 7.55663C166.079 7.55924 169.448 7.56054 172.819 7.55663V7.55403H174.987V8.70655L174.988 8.70785Z" fill="#7A7A7A"/>
</g>
<defs>
<clipPath id="clip0_10819_894">
<rect width="180" height="28" fill="white" transform="translate(0.472656)"/>
</clipPath>
</defs>
</svg>
