<svg width="100" height="32" viewBox="0 0 100 32" fill="none" xmlns="http://www.w3.org/2000/svg">
<path fill-rule="evenodd" clip-rule="evenodd" d="M70.2183 10.9458C68.7083 13.5475 66.0107 19.1412 66.0107 19.1412C66.0107 19.1412 64.6519 22.1608 64.0773 25.2465C63.8219 26.6187 64.3152 28.2126 64.3152 28.2126C64.6842 29.7865 62.9359 29.3541 62.9359 29.3541C61.6588 28.9322 61.6942 27.217 61.6942 27.217C61.6942 24.6852 62.8145 22.238 63.4708 20.6001C61.1644 21.5145 60.0858 19.2597 60.7421 16.9827L58.1057 20.5593C57.2573 21.562 56.4215 21.3656 56.4215 21.3656C56.3791 21.3656 55.3647 21.2414 55.416 19.8802C55.4408 19.2212 55.625 16.4717 55.8362 15.4505C55.8576 15.3437 55.7943 15.2374 55.7093 15.3652C54.6099 17.3221 52.8083 19.4549 52.45 20.0461C51.9853 20.8128 51.5191 21.1305 51.5191 21.1305C51.1446 21.4341 50.4937 21.2046 50.4937 21.2046C49.8268 20.9559 49.9632 20.1974 49.9632 20.1974L50.5947 15.6153C50.5947 15.5524 50.5738 15.5305 50.5102 15.5305C50.3201 15.5305 48.5325 18.0218 47.5462 19.7597L46.9002 20.81C46.9002 20.81 46.3426 21.6902 45.4814 21.1606C44.8078 20.7463 45.0195 19.9721 45.0195 19.9721L46.8667 12.153C46.8667 12.1317 46.8667 12.0041 46.7605 12.0041C46.1894 12.0041 46.0269 13.5016 45.246 13.5305C44.8531 13.545 44.6506 13.3759 44.6506 13.3759C44.118 13.0677 44.3708 12.2684 44.3708 12.2684C44.3708 12.2684 45.2146 10.0222 46.3327 9.45758C46.3327 9.45758 46.9779 9.05053 47.5153 9.12329C48.0529 9.19605 48.913 9.32577 48.4615 11.7915L47.8974 14.9987C47.8974 14.9987 47.8412 15.2793 47.9285 15.3241C47.9285 15.3241 48.0678 15.4635 48.3487 15.0869L51.9257 10.1669C52.6962 9.02806 53.6046 9.60253 53.6046 9.60253C54.2096 9.86082 54.002 10.6069 54.002 10.6069C54.002 10.6069 52.2389 16.0524 52.2389 16.5629C52.2389 16.7332 52.3873 16.7753 52.4714 16.6484C53.2114 15.5204 54.7769 13.0734 56.089 11.4353C56.6805 10.7121 57.0197 10.3926 57.6749 10.4566C58.3092 10.5204 58.6056 10.9246 58.6056 11.5629C58.6056 11.6694 58.5842 11.797 58.5637 11.9248C58.5637 11.9248 57.4001 15.9462 57.3149 18.0949C57.3149 18.0949 57.2969 18.4039 57.3783 18.4663C57.5351 18.5867 57.7286 18.3157 57.7286 18.3157C58.3797 17.5942 60.4619 14.2835 60.9324 13.414L62.4388 10.3309C62.4388 10.3309 63.0781 8.92825 63.9319 9.14634C63.9319 9.14634 65.2904 9.28425 64.6341 10.7715C64.5265 11.0149 63.4922 12.7058 62.6034 16.1961C62.4555 16.7273 62.2648 18.281 63.2163 18.281C63.6395 18.281 64.1898 17.9399 64.7609 16.8972L68.5044 10.1317C68.8216 9.79072 69.0727 9.60253 69.5163 9.60253C70.9025 9.60253 70.2183 10.9458 70.2183 10.9458ZM72.8387 7.24495C72.8387 3.24895 69.6362 0 65.6878 0H48.2178C44.2681 0 41.066 3.24895 41.066 7.24495L41.0698 24.7509C41.0698 28.7457 44.2713 32 48.2206 32H65.6905C69.6398 32 72.8402 28.7467 72.8402 24.7509L72.8387 7.24495Z" fill="#7A7A7A"/>
<path fill-rule="evenodd" clip-rule="evenodd" d="M6.99157 20.0112H5.01067V15.5258C5.01067 14.8868 4.90955 14.4094 4.70826 14.0948C4.50678 13.7801 4.16631 13.6224 3.68553 13.6224C3.33559 13.6224 3.01519 13.7093 2.72433 13.8834C2.43253 14.058 2.18522 14.3058 1.98109 14.6272V20.0112H0V11.8654H1.12821L1.87297 12.9611C2.03298 12.8146 2.27574 12.63 2.47229 12.5022C2.66904 12.3744 2.87658 12.262 3.09529 12.1664C3.31343 12.071 3.54332 11.9963 3.78362 11.9405C4.02391 11.8851 4.27046 11.8576 4.52307 11.8576C4.81374 11.8576 5.07032 11.8885 5.29055 11.9514C5.51191 12.0133 5.70714 12.1041 5.877 12.2243C6.04685 12.3437 6.1955 12.4875 6.32162 12.6561C6.44792 12.8256 6.55907 13.0165 6.65622 13.2296C6.81168 13.0734 6.9876 12.914 7.18453 12.75C7.38109 12.5862 7.59847 12.4384 7.8365 12.3058C8.07453 12.1734 8.33395 12.0656 8.61553 11.9824C8.89749 11.8992 9.20274 11.8576 9.53355 11.8576C9.97969 11.8576 10.3592 11.9493 10.6731 12.1319C10.9863 12.3152 11.241 12.5685 11.438 12.8925C11.6345 13.2165 11.7769 13.6022 11.867 14.0491C11.9568 14.4963 12.0021 14.9837 12.0021 15.511V20.0112H10.021V15.5258C10.021 14.8868 9.92155 14.4094 9.72234 14.0948C9.52352 13.7801 9.19043 13.6224 8.72517 13.6224C8.37542 13.6224 8.05464 13.7043 7.76303 13.8677C7.47198 14.0314 7.21502 14.2837 6.99157 14.6272V20.0112Z" fill="#7A7A7A"/>
<path fill-rule="evenodd" clip-rule="evenodd" d="M18.5354 16.309H16.7582C16.2827 16.309 15.9352 16.4218 15.7163 16.6056C15.4982 16.7886 15.3889 17.045 15.3889 17.3728C15.3889 17.6858 15.4814 17.9269 15.666 18.0966C15.8504 18.2654 16.132 18.3511 16.5101 18.3511C16.7389 18.3511 16.9557 18.3203 17.1625 18.2593C17.3691 18.1976 17.5594 18.1157 17.7342 18.0115C17.9086 17.9073 18.0639 17.7843 18.2002 17.6401C18.3356 17.4965 18.4475 17.3446 18.5354 17.1852V16.309ZM18.5348 19.1144C18.3058 19.3649 17.9468 19.5988 17.5412 19.7675C17.1356 19.9352 16.6512 20.0199 16.0884 20.0199C15.6951 20.0199 15.3406 19.9567 15.0244 19.8294C14.7089 19.7034 14.4391 19.5254 14.2132 19.2961C13.9875 19.0668 13.8136 18.7965 13.6919 18.4835C13.5709 18.1702 13.5105 17.8285 13.5105 17.4567C13.5105 15.939 14.6769 14.9744 16.5461 14.9744H18.52V14.5241C18.52 14.246 18.3808 14.0272 18.1015 13.8687C17.8228 13.7102 17.3943 13.63 16.8163 13.63C16.2774 13.63 15.7784 13.6872 15.32 13.8009C14.8616 13.9138 14.6072 14.0096 14.2139 14.1727L13.9691 12.4725C14.1143 12.4081 14.292 12.3403 14.5008 12.2687C14.7089 12.1969 14.9428 12.1308 15.1998 12.0689C15.4571 12.0083 15.7362 11.9571 16.0373 11.9174C16.3378 11.8771 16.654 11.8576 16.9839 11.8576C18.1297 11.8576 18.9902 12.1395 19.5658 12.7047C20.1406 13.2687 20.4284 14.0712 20.4284 15.1114V20.0112H19.0169L18.5348 19.1144Z" fill="#7A7A7A"/>
<path fill-rule="evenodd" clip-rule="evenodd" d="M29.7978 11.7434L26.5678 15.8182L30.2416 20.0104H27.7512L24.354 15.8744V20.0104H22.3733V8.82986H24.354V15.8744L27.3798 11.7434H29.7978Z" fill="#7A7A7A"/>
<path fill-rule="evenodd" clip-rule="evenodd" d="M34.2037 13.6146C33.9418 13.6146 33.7038 13.647 33.4897 13.7125C33.2762 13.7778 33.0893 13.8712 32.9293 13.9906C32.7693 14.1108 32.6377 14.2555 32.5357 14.4253C32.434 14.5963 32.3637 14.7835 32.3247 14.9883H35.8425C35.8425 14.8049 35.8095 14.6294 35.7436 14.4616C35.6785 14.2934 35.5777 14.1475 35.4414 14.0237C35.3058 13.8988 35.1344 13.7997 34.9286 13.7256C34.7218 13.6517 34.4808 13.6146 34.2037 13.6146ZM34.5747 18.263C34.9243 18.263 35.2413 18.2344 35.5251 18.179C35.8091 18.1235 36.0678 18.0496 36.3005 17.9594C36.534 17.8685 36.7453 17.763 36.9343 17.6439C37.1235 17.5239 37.0576 17.5809 37.2129 17.4576L37.595 19.2176C37.2451 19.4418 36.7508 19.6403 36.253 19.7915C35.7556 19.9434 35.1894 20.0199 34.5531 20.0199C33.8589 20.0199 33.2443 19.9218 32.7108 19.727C32.1765 19.5315 31.7258 19.2576 31.359 18.9032C30.9931 18.5487 30.7144 18.1235 30.5254 17.6254C30.3364 17.1274 30.2414 16.5754 30.2414 15.9698C30.2414 15.4102 30.3279 14.8813 30.5 14.3832C30.6724 13.8849 30.925 13.4491 31.2573 13.0742C31.59 12.6992 32.0013 12.403 32.4917 12.1847C32.9826 11.967 33.5482 11.8576 34.1888 11.8576C34.8349 11.8576 35.3912 11.9613 35.8605 12.1683C36.3282 12.3755 36.7147 12.6514 37.0176 12.9955C37.3216 13.3407 37.5458 13.7363 37.6921 14.1834C37.8378 14.6302 37.8912 15.0936 37.8912 15.5734C37.8912 15.7028 37.8836 15.8515 37.869 16.0184C37.8544 16.1854 37.8355 16.3272 37.8109 16.442H32.2884C32.3171 16.7237 32.3901 16.9771 32.5065 17.2003C32.6228 17.4243 32.7796 17.6146 32.9761 17.7715C33.1731 17.9285 33.4058 18.0496 33.675 18.1348C33.9445 18.2205 34.2446 18.263 34.5747 18.263Z" fill="#7A7A7A"/>
<path fill-rule="evenodd" clip-rule="evenodd" d="M74.7882 13.02L77.4645 9.81597H78.0513V11.8644H80.3378V13.6377H78.0513V16.976C78.0513 17.208 78.079 17.4017 78.135 17.5567C78.1901 17.7106 78.2676 17.8337 78.3649 17.927C78.4613 18.0194 78.573 18.0845 78.6989 18.124C78.8254 18.1624 78.9595 18.1815 79.0998 18.1815C79.3619 18.1815 79.5938 18.1564 79.7948 18.1055C79.9968 18.0552 80.1758 17.9912 80.3308 17.9152V19.6904C80.1167 19.7977 79.8923 19.8788 79.6571 19.9346C79.4215 19.9912 79.1339 20.0188 78.7938 20.0188C78.3134 20.0188 77.9004 19.9619 77.5561 19.847C77.2115 19.7322 76.9295 19.5668 76.7118 19.3484C76.4919 19.1293 76.3308 18.8636 76.2268 18.5518C76.1227 18.24 76.0697 17.8864 76.0697 17.491V13.6377H74.7882V13.02Z" fill="#7A7A7A"/>
<path fill-rule="evenodd" clip-rule="evenodd" d="M83.7158 13.5439C83.983 13.0557 84.4613 12.5856 84.8571 12.2942C85.2523 12.0032 85.7276 11.8576 86.2803 11.8576C86.4695 11.8576 86.6246 11.8672 86.7433 11.886C86.8622 11.9049 86.9529 11.9232 87.0162 11.9394C87.0162 11.9394 86.9529 12.4001 86.652 13.8072C86.5301 13.7801 86.3848 13.7664 86.2146 13.7664C85.8408 13.7664 85.5077 13.831 85.2134 13.9611C84.9197 14.0912 84.6709 14.2786 84.4676 14.5222C84.264 14.7664 84.107 15.0662 83.9977 15.4194C83.8877 15.7729 83.8336 16.1731 83.8336 16.6195V20.0112H81.8525V11.8653H83.1218L83.7158 13.5439Z" fill="#7A7A7A"/>
<path fill-rule="evenodd" clip-rule="evenodd" d="M96.0214 13.6389C95.7695 13.6389 95.5406 13.6764 95.337 13.7518C95.1337 13.8267 94.9536 13.9244 94.7981 14.0452C94.6425 14.1646 94.5093 14.3019 94.3978 14.4549C94.2861 14.6073 94.1954 14.7642 94.1285 14.9246V17.2377C94.2054 17.3774 94.3069 17.5097 94.4298 17.6349C94.5538 17.7595 94.693 17.8692 94.849 17.9642C95.0045 18.0591 95.1774 18.1349 95.3696 18.193C95.5614 18.2499 95.7663 18.2785 95.9852 18.2785C96.3196 18.2785 96.6103 18.2237 96.8551 18.1134C97.1004 18.0042 97.3039 17.8503 97.4671 17.6534C97.6298 17.4553 97.7506 17.2183 97.8275 16.9408C97.9051 16.6638 97.9438 16.3576 97.9438 16.0225C97.9438 15.673 97.8979 15.3518 97.8052 15.0593C97.7133 14.7667 97.5828 14.5158 97.4124 14.3059C97.2416 14.0962 97.0398 13.932 96.8042 13.8151C96.5681 13.6974 96.3079 13.6389 96.0214 13.6389ZM98.0777 12.1995C98.5081 12.4283 98.8636 12.734 99.1446 13.1167C99.4265 13.4994 99.6341 13.9405 99.7678 14.4418C99.9009 14.9414 99.9677 15.4618 99.9677 16.0001C99.9677 16.5498 99.8973 17.0664 99.7566 17.5521C99.6157 18.0374 99.4036 18.4632 99.1196 18.8304C98.8355 19.1967 98.4822 19.487 98.0593 19.7003C97.6376 19.9138 97.1425 20.0199 96.574 20.0199C96.0207 20.0199 95.5535 19.939 95.1722 19.7757C94.7912 19.6142 94.4571 19.3757 94.1712 19.0613L94.142 19.0782V23.3022H92.1615V11.8654H93.3462L94.1028 12.8576C94.3899 12.5626 94.7978 12.2759 95.1941 12.1087C95.5903 11.9413 96.037 11.8576 96.5378 11.8576C97.1349 11.8576 97.649 11.9725 98.0777 12.1995Z" fill="#7A7A7A"/>
<path fill-rule="evenodd" clip-rule="evenodd" d="M89.056 8.51389C88.4855 8.51389 88.0244 8.97865 88.0244 9.55217C88.0244 10.1259 88.4855 10.591 89.056 10.591C89.6262 10.591 90.0882 10.1259 90.0882 9.55217C90.0882 8.97865 89.6262 8.51389 89.056 8.51389ZM88.066 20.0138H90.0467V11.8681H88.066V20.0138Z" fill="#7A7A7A"/>
</svg>
