<svg width="181" height="24" viewBox="0 0 181 24" fill="none" xmlns="http://www.w3.org/2000/svg">
<path d="M7.0707 6.54438C7.0707 7.63056 7.80451 8.24325 12.1538 9.00295C20.8244 10.5171 22.5674 13.0576 22.5674 16.6634C22.5674 18.8696 21.4754 24 11.3652 24C7.55325 24 2.01831 23.0335 0.899603 16.5646L0.846098 16.255H7.00124L7.06404 16.4371C7.78312 18.5431 8.56236 19.4823 11.8932 19.4823C15.8135 19.4823 16.2666 18.1919 16.2666 17.2215C16.2666 15.8739 15.3818 15.0439 10.5406 14.2439C1.98355 12.8209 0.804688 9.95645 0.804688 7.07385C0.804688 2.77722 4.81317 0 11.0137 0C20.2591 0 21.5035 5.23836 21.6652 6.84361L21.6946 7.13497H15.5542L15.4981 6.94246C15.1479 5.74572 14.3191 4.52163 10.8373 4.52163C9.11844 4.52163 7.0707 4.87287 7.0707 6.54438Z" fill="#7A7A7A"/>
<path fill-rule="evenodd" clip-rule="evenodd" d="M68.4105 23.8322H75.3729L66.2867 0.279691H58.1828L49.0577 23.8322H55.8624L57.7109 18.5145H66.6007L68.4105 23.8322ZM62.1565 4.81041L65.343 14.3389H58.97L62.1565 4.81041Z" fill="#7A7A7A"/>
<path d="M85.1663 19.0855H98.1862V23.8322H78.4004V0.279691H85.1663V19.0855Z" fill="#7A7A7A"/>
<path d="M101.347 0.279691V23.8322H121.53V19.0855H108.113V14.2674H120.697V9.80686H108.113V5.02508H121.566V0.279691H101.347Z" fill="#7A7A7A"/>
<path fill-rule="evenodd" clip-rule="evenodd" d="M148.421 23.8322L141.658 14.322C142.685 14.0111 143.576 13.5766 144.331 13.0186C146.036 11.7581 146.888 9.92653 146.888 7.52261C146.888 5.33464 146.029 3.57985 144.311 2.25819C142.594 0.937872 140.188 0.277069 137.094 0.277069H124.703V23.8322H131.35V15.2312H135.404L140.948 23.8322H148.421ZM131.349 4.91836H136.147C137.458 4.91836 138.442 5.15642 139.097 5.63252C139.752 6.10863 140.081 6.8579 140.081 7.88033C140.081 8.90276 139.752 9.68848 139.097 10.1646C138.441 10.6406 137.457 10.8787 136.147 10.8787H131.349V4.91836Z" fill="#7A7A7A"/>
<path d="M30.3986 12.1054C30.3986 16.0429 33.2041 18.746 36.8718 18.746C39.5677 18.746 41.6462 16.9873 42.5096 14.2569H48.3078C47.3094 21.1083 42.7302 23.8634 36.8718 23.8634C29.4549 23.8634 24.3571 19.0855 24.3571 12.1041C24.3571 5.12259 29.4549 0.344717 36.8718 0.344717C41.3936 0.344717 45.9768 2.02667 47.7304 6.99839L42.2905 8.79219C41.3267 6.50018 39.3659 5.46474 36.8718 5.46474C33.2041 5.46474 30.3986 8.16784 30.3986 12.1054Z" fill="#7A7A7A"/>
<path d="M180.805 0.232401V0.159555H166.683L165.129 1.6724C164.935 1.86102 164.741 2.04834 164.547 2.23696C162.829 3.9124 161.114 5.59306 159.392 7.2659C158.527 8.10623 157.649 8.93615 156.778 9.77127C156.775 9.77387 156.772 9.77647 156.77 9.77908L156.434 10.0952V23.8409H170.426C170.577 23.7121 170.736 23.5898 170.878 23.4519C172.679 21.7023 174.478 19.9475 176.282 18.1993C177.042 17.4617 177.815 16.7384 178.578 16.0035C179.179 15.4246 179.775 14.8431 180.37 14.2578C180.523 14.1082 180.659 13.9443 180.802 13.7869V5.43566C180.802 3.72509 180.802 2.01582 180.802 0.305246C180.802 0.280531 180.802 0.254515 180.802 0.232401H180.805ZM166.349 19.3739C166.349 19.6393 166.344 19.6432 166.077 19.6432C164.61 19.6432 163.144 19.6432 161.679 19.6432C161.43 19.6432 161.182 19.6575 160.935 19.6614C160.734 19.6653 160.646 19.5781 160.647 19.3713C160.653 17.7375 160.653 16.1036 160.647 14.4698C160.647 14.2799 160.713 14.1823 160.915 14.1849C160.979 14.1849 161.043 14.1784 161.106 14.1784C162.735 14.1784 164.364 14.1784 165.995 14.1784C166.337 14.1784 166.351 14.1927 166.351 14.5323C166.351 15.3284 166.351 16.1244 166.351 16.9205C166.351 17.7375 166.351 18.5544 166.351 19.3713L166.349 19.3739ZM175.321 6.70785H175.317C175.317 10.2903 175.317 13.8727 175.321 17.4539L170.513 22.1329V10.1121H158.209L162.871 5.57485C162.923 5.56314 162.98 5.55663 163.04 5.55663C166.411 5.55924 169.78 5.56054 173.151 5.55663V5.55403H175.319V6.70655L175.321 6.70785Z" fill="#7A7A7A"/>
</svg>
